<svg id="Capa_1" enable-background="new 0 0 512 512" height="512" viewBox="0 0 512 512" width="512" xmlns="http://www.w3.org/2000/svg"><circle cx="256" cy="256" fill="#007f82" r="256"/><path d="m189.167 264.277-44.681 112.926 133.819 133.819c110.717-9.559 201.27-89.577 226.602-195.001l-238.235-238.234-155.646 72.438 232.096 232.097-8.873 27.037z" fill="#026363"/><path d="m214.589 68.272s-11.839 5.129-24.408-.351-38.347.56-48.569 9.866-34.103 17.882-34.103 17.882-21.57 26.861-14.637 36.875c6.933 10.015 13.096 20.029 24.652 17.718s35.52-5.393 35.52-5.393l13.013 15.336s0 42.046 6.933 43.784 46.743 37.037 61.38 39.348 67.52 23.249 67.52 23.249l19.774 43.911v77.747 21.63l17.725 10.015h18.489l12.326-31.645-6.933-11.042 10.785-8.927 13.096-29.274-28.503-27.733 13.096-29.274 30.044 2.311 21.57 16.948 18.489-13.867-21.57-35.246-42.37-30.234 7.704-11.555-26.192-6.361s-33.126.968-50.844-14.439l-10.015-32.427-25.422-25.351-32.355-7.704-7.704-28.401h26.963l6.632-17.882-38.217-17.882z" fill="#ffcc91"/><path d="m260.041 95.669 6.631-17.882-11.077-5.183v23.065z" fill="#ffa564"/><path d="m420.276 252.141-42.37-30.234 7.704-11.555-26.192-6.361s-33.126.968-50.844-14.439l-10.015-32.427-25.422-25.351-17.542-4.177v121.846c20.538 6.947 46.294 17.144 46.294 17.144l19.774 43.911v77.747 21.63l17.725 10.015h18.489l12.326-31.645-6.933-11.042 10.785-8.927 13.096-29.274-28.504-27.733 13.096-29.274 30.044 2.311 21.57 16.948 18.489-13.867z" fill="#ffa564"/><path d="m284.581 403.971-35.258-2.511-35.437 3.472-9.244 23.491 38.518 16.178 34.667 30.044 41.531-22.073-5.52-57.217z" fill="#ffcc91"/><path d="m319.358 452.572-5.52-57.217-29.257 8.616-28.986-2.064v53.47l22.232 19.268z" fill="#ffa564"/><path d="m189.167 264.277-50.974 16.731-9.114 47.209 15.407 48.986 26.963 7.25 27.733-27.023-5.92-46.931z" fill="#ffcc91"/></svg>